<?xml version="1.0" standalone="no"?>
<!DOCTYPE svg PUBLIC "-//W3C//DTD SVG 20010904//EN"
 "http://www.w3.org/TR/2001/REC-SVG-20010904/DTD/svg10.dtd">
<svg version="1.0" xmlns="http://www.w3.org/2000/svg"
 width="194.000000pt" height="194.000000pt" viewBox="0 0 194.000000 194.000000"
 preserveAspectRatio="xMidYMid meet">
<metadata>
Created by potrace 1.11, written by Peter Selinger 2001-2013
</metadata>
<g transform="translate(0.000000,194.000000) scale(0.100000,-0.100000)"
fill="#000000" stroke="none">
<path d="M846 1928 c-86 -11 -199 -44 -281 -82 -214 -99 -404 -298 -485 -509
-36 -92 -68 -222 -72 -292 -2 -45 0 -50 20 -53 16 -2 22 2 23 15 2 81 37 235
72 318 84 198 280 400 467 482 105 45 193 69 291 79 63 6 81 16 73 39 -5 13
-26 13 -108 3z"/>
<path d="M990 1915 c0 -20 7 -23 73 -30 39 -5 74 -9 77 -10 3 -1 21 -5 40 -9
371 -82 671 -423 706 -803 6 -67 9 -73 30 -73 21 0 22 4 18 48 -30 359 -234
654 -559 809 -82 39 -234 79 -322 86 -60 4 -63 3 -63 -18z"/>
<path d="M865 1842 c-150 -16 -343 -99 -455 -197 -186 -162 -287 -358 -314
-607 -5 -46 -4 -48 20 -48 21 0 24 5 25 35 1 19 2 38 3 43 1 4 6 29 10 56 27
171 136 355 283 481 125 107 339 195 473 195 36 0 40 3 40 25 0 27 3 26 -85
17z"/>
<path d="M990 1827 c0 -22 5 -25 63 -30 80 -8 101 -13 174 -36 306 -98 540
-385 569 -699 6 -67 9 -72 30 -72 22 0 23 3 19 64 -3 35 -9 74 -14 87 -5 13
-9 27 -9 32 -2 25 -18 78 -42 137 -120 292 -408 503 -727 534 -61 6 -63 6 -63
-17z"/>
<path d="M860 1752 c-119 -15 -282 -87 -387 -172 -144 -116 -255 -307 -277
-475 -16 -120 -17 -115 9 -115 21 0 23 6 30 68 9 84 52 214 96 289 50 84 190
222 272 268 99 55 223 92 310 94 33 1 37 4 37 26 0 26 -6 27 -90 17z"/>
<path d="M990 1736 c0 -24 4 -26 43 -26 96 0 258 -59 363 -130 57 -40 145
-129 186 -188 69 -100 128 -270 128 -368 0 -30 3 -34 25 -34 26 0 26 1 20 58
-23 205 -104 366 -256 507 -120 110 -281 182 -451 200 -57 6 -58 6 -58 -19z"/>
<path d="M456 978 c1 -249 2 -456 3 -460 0 -5 34 -8 75 -8 l74 0 0 48 c0 26 1
118 1 205 l1 157 130 0 130 0 0 70 0 70 -130 0 -130 0 0 115 0 116 130 -3 130
-3 0 73 0 72 -208 0 -207 0 1 -452z"/>
<path d="M910 970 l0 -460 75 0 c75 0 75 0 76 28 0 15 1 106 1 203 l1 177 131
-2 131 -1 0 -200 0 -200 77 -3 76 -3 0 461 1 460 -77 0 -78 0 1 -185 1 -185
-28 0 c-16 -1 -62 -1 -103 -1 -41 0 -88 0 -104 1 l-28 0 -1 173 c0 94 -1 178
-1 185 -1 8 -23 12 -76 12 l-75 0 0 -460z"/>
<path d="M9 933 c-2 -24 -2 -20 5 -85 32 -279 215 -558 461 -704 120 -71 299
-129 414 -133 25 -1 48 -4 53 -7 4 -3 8 7 8 23 0 26 -3 28 -37 27 -20 -1 -66
5 -102 12 -324 63 -583 279 -700 584 -16 41 -31 89 -34 105 -3 17 -8 44 -12
60 -5 28 -11 78 -14 118 -1 10 -9 17 -21 17 -12 0 -20 -7 -21 -17z"/>
<path d="M96 903 c24 -223 109 -406 256 -550 75 -74 112 -103 196 -150 61 -34
175 -78 230 -88 15 -2 38 -7 52 -10 14 -3 46 -7 73 -10 45 -4 47 -3 47 20 0
20 -5 25 -27 26 -261 11 -529 174 -664 405 -38 64 -105 221 -99 232 1 1 -2 16
-5 34 -7 29 -13 79 -14 121 -1 11 -9 17 -25 17 -24 0 -25 -2 -20 -47z"/>
<path d="M187 898 c7 -73 38 -191 67 -255 88 -191 250 -339 457 -414 46 -17
84 -30 84 -29 0 1 16 -1 35 -4 19 -3 54 -8 78 -10 39 -4 42 -3 42 20 0 20 -5
24 -32 25 -101 2 -244 50 -347 116 -115 73 -226 203 -280 328 -27 60 -61 197
-61 243 0 27 -4 32 -24 32 -23 0 -23 -2 -19 -52z"/>
<path d="M1708 908 c-4 -134 -77 -307 -175 -419 -56 -63 -164 -149 -230 -183
-57 -29 -183 -65 -249 -72 -58 -6 -64 -9 -64 -29 0 -21 3 -22 53 -18 369 31
674 332 712 702 6 60 6 61 -19 61 -24 0 -26 -4 -28 -42z"/>
<path d="M1800 908 c0 -72 -38 -207 -85 -303 -123 -250 -358 -420 -635 -457
-83 -11 -90 -13 -90 -34 0 -19 5 -22 28 -19 15 2 54 6 87 10 69 7 183 43 258
82 269 135 454 405 482 701 5 61 5 62 -20 62 -23 0 -25 -4 -25 -42z"/>
<path d="M1889 915 c-1 -19 -2 -38 -3 -42 -1 -5 -5 -30 -10 -58 -26 -172 -120
-353 -254 -490 -162 -166 -367 -257 -619 -274 -7 -1 -13 -10 -13 -21 0 -25 14
-27 110 -15 183 21 380 114 527 248 67 62 163 188 204 270 42 82 85 220 94
297 4 36 9 77 11 93 3 23 -1 27 -21 27 -22 0 -25 -5 -26 -35z"/>
</g>
</svg>
